<?xml version="1.0" encoding="UTF-8" standalone="no"?>
<!-- Created with Inkscape (http://www.inkscape.org/) -->

<svg
   xmlns:dc="http://purl.org/dc/elements/1.1/"
   xmlns:cc="http://creativecommons.org/ns#"
   xmlns:rdf="http://www.w3.org/1999/02/22-rdf-syntax-ns#"
   xmlns:svg="http://www.w3.org/2000/svg"
   xmlns="http://www.w3.org/2000/svg"
   xmlns:sodipodi="http://sodipodi.sourceforge.net/DTD/sodipodi-0.dtd"
   xmlns:inkscape="http://www.inkscape.org/namespaces/inkscape"
   width="68.530922mm"
   height="67.775383mm"
   viewBox="0 0 242.8261 240.14897"
   id="svg2"
   version="1.1"
   inkscape:version="0.91 r13725"
   sodipodi:docname="logo.svg">
  <defs
     id="defs4" />
  <sodipodi:namedview
     id="base"
     pagecolor="#ffffff"
     bordercolor="#666666"
     borderopacity="1.0"
     inkscape:pageopacity="0.0"
     inkscape:pageshadow="2"
     inkscape:zoom="1.6150185"
     inkscape:cx="0.24497605"
     inkscape:cy="87.309829"
     inkscape:document-units="px"
     inkscape:current-layer="layer1"
     showgrid="false"
     fit-margin-top="0"
     fit-margin-left="0"
     fit-margin-right="0"
     fit-margin-bottom="0"
     inkscape:window-width="1920"
     inkscape:window-height="1022"
     inkscape:window-x="0"
     inkscape:window-y="0"
     inkscape:window-maximized="1" />
  <metadata
     id="metadata7">
    <rdf:RDF>
      <cc:Work
         rdf:about="">
        <dc:format>image/svg+xml</dc:format>
        <dc:type
           rdf:resource="http://purl.org/dc/dcmitype/StillImage" />
        <dc:title></dc:title>
      </cc:Work>
    </rdf:RDF>
  </metadata>
  <g
     inkscape:label="Layer 1"
     inkscape:groupmode="layer"
     id="layer1"
     transform="translate(-711.41946,-299.47762)">
    <rect
       style="fill:#4d4d4d;fill-opacity:1;stroke:#333333;stroke-width:0.73933101;stroke-miterlimit:4;stroke-dasharray:none;stroke-dashoffset:0;stroke-opacity:1"
       id="rect4331"
       width="242.08673"
       height="239.40962"
       x="711.78912"
       y="299.84729" />
    <g
       style="fill:#ffffff;stroke:#ffffff"
       id="g4360"
       transform="matrix(0.61765332,0,0,0.61765332,320.90138,157.94374)">
      <path
         style="fill:#ffffff;fill-opacity:1;stroke:#ffffff;stroke-width:0.85500002;stroke-miterlimit:4;stroke-dasharray:none;stroke-dashoffset:0;stroke-opacity:1"
         d="m 671.18818,323.17736 0,-55 9.82143,0.009 9.82143,0.009 1.77871,2.66973 c 0.97829,1.46835 2.13439,3.47342 2.56912,4.45572 0.43473,0.98229 1.32181,2.22701 1.97129,2.76603 0.64948,0.53902 1.18088,1.27922 1.18088,1.64488 0,0.36566 1.44643,2.88062 3.21428,5.58881 1.76786,2.70819 3.21429,5.2019 3.21429,5.54159 0,0.33968 0.5625,1.25592 1.25,2.03608 0.6875,0.78016 2.1971,3.17113 3.35466,5.31326 1.15756,2.14213 2.36744,4.21621 2.68863,4.60907 1.02755,1.25685 4.13528,6.12253 4.13528,6.47449 0,0.18679 0.87647,1.6993 1.9477,3.36113 2.7085,4.20176 8.85372,14.19727 12.39703,20.16438 5.13582,8.64899 5.9136,9.63279 7.61956,9.63798 l 1.60714,0.005 0,-37.14286 0,-37.14286 8.92857,0 8.92857,0 0,55 0,55 -10.37482,0 c -10.0806,0 -10.39418,-0.0456 -11.05753,-1.60714 -0.37549,-0.88393 -2.13174,-3.85714 -3.90278,-6.60714 -1.77103,-2.75 -3.7476,-5.96429 -4.39237,-7.14286 -0.64478,-1.17857 -2.89843,-4.77778 -5.00812,-7.99824 -2.10969,-3.22047 -3.83581,-6.00795 -3.83581,-6.19442 0,-0.18647 -1.60386,-2.85511 -3.56415,-5.93032 -1.96028,-3.07522 -4.37641,-7.11809 -5.36917,-8.98416 -0.99277,-1.86607 -2.0896,-3.39286 -2.43741,-3.39286 -0.3478,0 -0.99104,-0.88393 -1.4294,-1.96428 -0.43837,-1.08036 -2.22798,-4.21429 -3.97693,-6.96429 -1.74894,-2.75 -3.71177,-5.96429 -4.36182,-7.14286 -4.48377,-8.12917 -7.30051,-10.73574 -8.42755,-7.79872 -0.23846,0.62142 -0.43357,17.01427 -0.43357,36.42857 l 0,35.29872 -8.92857,0 -8.92857,0 0,-55 z"
         id="path4362"
         inkscape:connector-curvature="0" />
      <path
         style="fill:#ffffff;fill-opacity:1;stroke:#ffffff;stroke-width:0.85500002;stroke-miterlimit:4;stroke-dasharray:none;stroke-dashoffset:0;stroke-opacity:1"
         d="m 784.75961,323.17736 0,-55 40.35714,0 40.35715,0 0,8.2345 0,8.2345 -29.75209,-0.0642 c -23.81854,-0.0514 -29.8724,0.12264 -30.35535,0.87265 -0.33179,0.51526 -0.52371,6.56184 -0.42648,13.43684 l 0.17677,12.5 28.03572,0.18686 28.03571,0.18686 0,8.56314 0,8.56314 -27.08444,0 c -14.89644,0 -27.59287,0.1951 -28.21428,0.43356 -0.98147,0.37663 -1.12841,2.41689 -1.11891,15.53572 0.006,8.31566 0.31658,15.58362 0.69111,16.17358 0.59054,0.93024 4.38045,1.03612 28.76018,0.80347 15.44401,-0.14738 29.43658,-0.0388 31.09461,0.24136 l 3.01459,0.50931 0,7.79436 0,7.79435 -41.78572,0 -41.78571,0 0,-55 z"
         id="path4364"
         inkscape:connector-curvature="0" />
      <path
         style="fill:#ffffff;fill-opacity:1;stroke:#ffffff;stroke-width:0.85500002;stroke-miterlimit:4;stroke-dasharray:none;stroke-dashoffset:0;stroke-opacity:1"
         d="m 729.18818,490.89165 c -0.47143,-0.47143 -0.85714,-1.44008 -0.85714,-2.15255 0,-0.71247 -0.31404,-1.85354 -0.69787,-2.53571 -0.38382,-0.68218 -1.03907,-2.60638 -1.4561,-4.27603 -0.41703,-1.66964 -1.06728,-3.03571 -1.44499,-3.03571 -0.37772,0 -0.68676,-0.58806 -0.68676,-1.30681 0,-1.57999 -3.49309,-11.63197 -4.37369,-12.58605 -0.34447,-0.37321 -0.62631,-1.23912 -0.62631,-1.92423 0,-0.68512 -1.125,-4.03623 -2.5,-7.44692 -1.375,-3.41068 -2.5,-6.70222 -2.5,-7.31453 0,-0.6123 -0.61036,-2.42012 -1.35636,-4.01737 -0.746,-1.59725 -1.90349,-4.67195 -2.57221,-6.83266 -0.66871,-2.16072 -1.8262,-5.23541 -2.5722,-6.83266 -0.74601,-1.59725 -1.35637,-3.28819 -1.35637,-3.75765 0,-0.82861 -2.99993,-9.18497 -7.2245,-20.12398 -1.13789,-2.94643 -2.06717,-5.81816 -2.06505,-6.38162 0.002,-0.56347 -0.5971,-2.33133 -1.33158,-3.92857 -0.73449,-1.59725 -2.06402,-5.15409 -2.95452,-7.90409 -0.89051,-2.75 -1.77368,-5.41036 -1.9626,-5.91192 -0.27128,-0.72019 1.95768,-0.87036 10.6019,-0.71428 l 10.94539,0.19763 0.5716,2.75487 c 0.31438,1.51518 1.03187,3.60447 1.59442,4.64286 0.56256,1.03839 1.88385,4.78084 2.93622,8.31655 1.05237,3.53572 2.12973,6.75 2.39413,7.14286 0.26439,0.39286 1.07261,2.64286 1.79603,5 0.72343,2.35714 1.71981,5.25 2.21418,6.42857 0.49437,1.17857 1.44252,4.05032 2.10699,6.38166 0.66447,2.33134 1.80045,5.54562 2.5244,7.14286 0.72395,1.59723 1.54124,4.02905 1.81621,5.40405 0.27497,1.375 1.067,3.78572 1.76007,5.35714 0.69308,1.57143 1.97917,5.1875 2.85799,8.03572 0.87883,2.84821 1.8353,5.17857 2.12549,5.17857 0.29019,0 0.72664,1.45197 0.96988,3.22659 0.83525,6.09385 3.8018,9.35492 5.51187,6.05912 0.30576,-0.58928 2.86367,-8.30357 5.68423,-17.14285 2.82057,-8.83929 5.71581,-17.67857 6.43386,-19.64286 0.71806,-1.96429 1.68817,-4.85714 2.1558,-6.42857 0.46764,-1.57143 1.57673,-4.94643 2.46467,-7.5 3.88573,-11.17485 5.53791,-16.27298 6.20634,-19.15096 0.39339,-1.69374 1.45943,-4.90802 2.36899,-7.14285 l 1.65374,-4.06333 10.33517,-0.13039 10.33517,-0.13038 -0.62404,2.7774 c -0.34322,1.52757 -1.07531,3.83624 -1.62686,5.13038 -0.55155,1.29414 -1.55588,3.79941 -2.23185,5.56727 -0.67597,1.76786 -1.48905,3.85714 -1.80683,4.64286 -0.31778,0.78571 -1.45867,4.16071 -2.53531,7.5 -1.07663,3.33928 -2.21253,6.41127 -2.52421,6.82664 -0.31168,0.41537 -1.04025,2.57329 -1.61902,4.79538 -0.57879,2.22209 -1.53717,5.09653 -2.12974,6.38764 -0.59257,1.29112 -1.60242,4.11534 -2.2441,6.27605 -0.64169,2.16072 -1.58231,4.73215 -2.09028,5.71429 -0.50796,0.98214 -1.62496,4.19643 -2.48219,7.14286 -0.85724,2.94642 -1.90968,5.98978 -2.33874,6.76302 -0.42907,0.77323 -1.52233,3.66609 -2.42948,6.42857 -1.85868,5.66017 -4.99112,14.29726 -5.96642,16.45126 -0.35576,0.78572 -1.18057,3.19643 -1.83291,5.35715 -0.65234,2.16071 -1.80029,5.29114 -2.55101,6.9565 -0.75071,1.66536 -1.36493,3.51357 -1.36493,4.10714 0,0.91723 -1.69398,1.07921 -11.28571,1.07921 -7.8254,0 -11.54852,-0.2628 -12.14286,-0.85714 z"
         id="path4366"
         inkscape:connector-curvature="0" />
      <path
         style="fill:#ffffff;fill-opacity:1;stroke:#ffffff;stroke-width:0.85500002;stroke-miterlimit:4;stroke-dasharray:none;stroke-dashoffset:0;stroke-opacity:1"
         d="m 837.61675,534.30207 c 0,-21.00079 0.25166,-38.33878 0.55923,-38.52888 0.30758,-0.19009 2.55437,-0.16471 4.99286,0.0564 l 4.43363,0.40202 0.18571,32.58002 0.18572,32.58001 15.20957,0.19287 15.20958,0.19286 -0.20958,5.16428 -0.20957,5.16428 -20.17858,0.18969 -20.17857,0.1897 0,-38.18326 z"
         id="path4370"
         inkscape:connector-curvature="0" />
      <path
         style="fill:#ffffff;fill-opacity:1;stroke:#ffffff;stroke-width:0.85500002;stroke-miterlimit:4;stroke-dasharray:none;stroke-dashoffset:0;stroke-opacity:1"
         d="m 731.90247,558.53451 0,-13.92857 13.57143,0 13.57142,0 0,13.92857 0,13.92857 -13.57142,0 -13.57143,0 0,-13.92857 z"
         id="path4372"
         inkscape:connector-curvature="0" />
      <path
         style="fill:#ffffff;fill-opacity:1;stroke:#ffffff;stroke-width:0.85500002;stroke-miterlimit:4;stroke-dasharray:none;stroke-dashoffset:0;stroke-opacity:1"
         d="m 963.29762,572.50228 c -4.94333,-1.50082 -9.56494,-5.73668 -12.51211,-11.46777 -1.21054,-2.35405 -3.34814,-11.48728 -2.81365,-12.02178 0.13548,-0.13547 2.11993,-0.41152 4.40989,-0.61343 l 4.16357,-0.36712 0.9486,2.39402 c 2.63343,6.64615 3.3622,7.82176 5.96834,9.62781 4.97856,3.45015 14.05316,3.02988 17.91261,-0.82957 0.99358,-0.99357 2.31609,-3.36449 2.93893,-5.26871 2.08725,-6.38139 -0.99274,-11.55697 -8.67579,-14.57873 -1.67759,-0.6598 -3.52931,-1.19964 -4.11492,-1.19964 -0.58562,0 -2.58804,-0.68025 -4.44984,-1.51168 -1.86178,-0.83143 -4.51007,-1.99478 -5.88507,-2.58523 -5.35736,-2.30054 -9.48661,-8.11369 -11.49354,-16.18054 -0.68988,-2.77295 -0.68172,-4.24331 0.0396,-7.14285 1.28171,-5.152 3.92184,-10.20155 6.44299,-12.32296 4.38364,-3.68859 2.55012,-4.71555 -7.8462,-4.39471 l -6.78575,0.2094 -0.35714,38.92857 -0.35714,38.92858 -4.28572,0 -4.28571,0 -0.18624,-30.53572 c -0.15951,-26.15269 -0.33532,-30.53571 -1.22487,-30.53571 -1.26397,0 -2.51746,2.1823 -2.51746,4.38283 0,0.89078 -0.62235,4.36727 -1.38299,7.72553 -1.6556,7.30947 -4.99299,24.41284 -5.93033,30.39164 -0.36955,2.35714 -1.28637,7.01785 -2.03739,10.35714 -0.75101,3.33929 -1.36504,6.63393 -1.36452,7.32143 7.1e-4,1.06051 -0.69281,1.25 -4.57544,1.25 l -4.57637,0 -1.07958,-3.75 c -0.59377,-2.0625 -1.62333,-7.125 -2.28793,-11.25 -0.6646,-4.125 -1.64916,-9.13604 -2.1879,-11.13565 -0.53875,-1.99962 -1.28567,-5.69604 -1.65983,-8.21429 -0.37415,-2.51825 -1.37209,-7.6322 -2.21763,-11.36435 -0.84554,-3.73214 -1.80092,-8.45506 -2.12306,-10.49538 -0.67762,-4.29172 -1.12888,-5.2189 -2.54009,-5.2189 -0.86711,0 -1.04977,4.61774 -1.20784,30.53571 l -0.18624,30.53572 -4.46429,0.21265 -4.46429,0.21265 0,-39.95765 c 0,-35.77725 -0.1182,-40.00303 -1.12985,-40.39123 -2.02159,-0.77576 -51.71561,-0.49008 -53.20282,0.30585 -1.34047,0.7174 -1.38161,1.9193 -1.38161,40.35714 l 0,39.61773 -4.64286,0 -4.64286,0 0,-39.61773 c 0,-37.98944 -0.055,-39.64715 -1.33768,-40.33363 -1.61848,-0.86618 -4.41304,-0.42199 -5.20602,0.82748 -0.3175,0.50028 -0.5822,3.40066 -0.58822,6.44531 l -0.0109,5.53571 -14.14286,0 c -10.04762,0 -14.39105,0.24819 -15,0.85714 -0.90183,0.90183 -1.26062,17.97458 -0.42358,20.15587 0.37236,0.97035 2.18739,1.12985 12.85714,1.12985 l 12.42358,0 0,5.35714 0,5.35714 -12.1007,0 c -8.89617,0 -12.25373,0.23645 -12.67857,0.89286 -0.31783,0.49107 -0.73858,8.125 -0.93501,16.96429 l -0.35715,16.07143 -4.06363,0.21292 c -3.34842,0.17544 -4.16557,-0.0131 -4.64285,-1.07143 -0.31858,-0.70639 -0.49322,-18.07899 -0.38809,-38.60578 l 0.19115,-37.32143 15.39153,0 c 9.24381,0 15.94337,-0.29534 16.77314,-0.73941 1.34794,-0.7214 1.38161,-2.10543 1.38161,-56.78572 l 0,-56.0463 40.38054,0 40.38053,0 -0.20196,8.03572 -0.20197,8.03571 -29.2223,0.18668 c -20.12237,0.12855 -29.52008,0.43382 -30.17856,0.98032 -1.29793,1.07718 -1.38811,24.90117 -0.0991,26.19014 0.63683,0.63683 7.88889,0.85715 28.21429,0.85715 l 27.35714,0 0,8.21428 0,8.21429 -27.35714,0 c -20.3254,0 -27.57746,0.22031 -28.21429,0.85714 -1.1048,1.10481 -1.2107,29.29042 -0.11772,31.33267 0.71352,1.33323 1.82047,1.38164 31.60714,1.38219 l 30.86773,5.7e-4 0.0928,9.01139 c 0.0697,6.77333 0.33582,9.16535 1.07143,9.63134 0.53826,0.34098 2.92411,0.62489 5.30189,0.63091 l 4.32323,0.0109 0.88667,3.75 c 0.48766,2.0625 1.31786,6.16072 1.84489,9.10715 0.87811,4.90925 1.55533,8.16817 3.33972,16.07143 0.35479,1.57142 0.96983,4.78571 1.36674,7.14285 1.62302,9.63847 3.73564,16.78572 4.96162,16.78572 4.50235,-8.669 7.60465,-26.72703 9.24715,-36.83614 0.74655,-5.24141 1.89825,-11.74128 2.55395,-14.41386 0.3345,-1.36336 0.87095,-1.60715 3.53656,-1.60715 4.04598,0 5.40196,-0.55016 5.40196,-2.19174 0,-0.9554 -0.84617,-1.54991 -3.03572,-2.13288 -1.66964,-0.44455 -3.51785,-1.22175 -4.10714,-1.72712 -0.58928,-0.50536 -2.064,-1.42107 -3.27713,-2.03491 -5.66688,-2.86738 -12.20683,-11.28592 -14.28819,-18.39245 -0.62469,-2.13292 -1.42805,-4.1834 -1.78524,-4.55661 -0.3572,-0.37321 -0.64944,-1.83031 -0.64944,-3.238 l 0,-2.55944 7.32143,-0.86935 c 10.26894,-1.21936 11.96429,-1.15929 11.96429,0.42395 0,2.38627 4.95177,11.37394 7.4984,13.60991 3.84955,3.37995 6.31531,4.38369 12.9494,5.27132 7.04939,0.9432 16.05502,-0.0147 19.35323,-2.05862 3.09363,-1.91711 6.63823,-5.40539 7.88359,-7.75833 1.54976,-2.92809 1.52662,-10.3457 -0.0397,-12.73627 -1.82663,-2.7878 -6.78439,-5.78524 -11.9306,-7.21319 -2.55357,-0.70856 -5.79546,-1.7093 -7.2042,-2.22387 -1.40874,-0.51457 -4.62303,-1.30685 -7.14285,-1.76061 -2.51984,-0.45377 -5.5458,-1.23871 -6.72438,-1.74431 -1.17857,-0.50561 -4.07142,-1.51274 -6.42857,-2.23808 -2.35714,-0.72534 -5.08928,-1.82391 -6.07143,-2.44126 -0.98214,-0.61736 -2.66652,-1.56531 -3.74307,-2.10657 -2.29065,-1.15168 -9.82838,-8.45587 -9.82838,-9.52387 0,-0.4022 -0.86576,-2.53014 -1.92391,-4.72877 -1.65516,-3.43906 -1.92235,-4.89678 -1.91267,-10.43501 0.0105,-5.99794 0.19793,-6.82047 2.74535,-12.0459 2.21178,-4.53697 3.56649,-6.28521 7.09124,-9.15123 7.17237,-5.83193 13.92807,-8.01956 27.52364,-8.91269 7.96165,-0.52303 17.71996,1.00091 24.3335,3.80011 4.65801,1.97152 5.52765,2.52955 8.74198,5.60963 6.01555,5.76427 9.23398,11.9617 10.05571,19.36329 l 0.3264,2.93997 -4.74062,0.4478 c -2.60734,0.2463 -7.03397,0.4501 -9.83697,0.45289 l -5.09635,0.005 -1.2232,-3.75 c -0.67275,-2.0625 -1.75439,-4.33052 -2.40364,-5.04004 -3.38352,-3.69761 -4.7575,-4.79458 -7.79171,-6.22083 -2.95382,-1.38846 -4.22392,-1.52872 -11.56773,-1.27746 -9.21911,0.31543 -13.00321,1.55968 -16.77539,5.5159 -1.71665,1.8004 -2.15235,2.96178 -2.40105,6.4 -0.29443,4.07044 -0.21846,4.28951 2.45437,7.07741 3.47185,3.62134 14.16756,7.93563 22.42004,9.04349 1.7783,0.23873 4.14539,0.90727 5.26022,1.48565 1.11482,0.57838 2.77481,1.05159 3.68886,1.05159 0.91405,0 1.83379,0.27811 2.04386,0.61801 0.21007,0.33991 1.49901,0.79929 2.8643,1.02084 4.40889,0.71547 14.14397,5.88789 17.75472,9.43339 11.74764,11.53537 11.99009,31.58997 0.53345,44.12536 -1.93547,2.11771 -4.9821,4.62653 -6.77029,5.57517 -2.39847,1.25443 -8.68731,6.2966 -4.38449,6.37009 3.15346,0 9.38463,3.18578 12.06848,6.17019 2.61877,2.91204 5.49333,9.62985 5.49333,12.83784 0,1.34288 -0.48732,1.72115 -2.67857,2.07917 -1.47321,0.24071 -3.5625,0.60224 -4.64286,0.80341 -1.33951,0.24942 -1.9665,0.0637 -1.97126,-0.58385 -0.004,-0.5223 -0.77122,-2.59092 -1.70529,-4.59697 -1.35583,-2.9118 -2.3362,-3.95614 -4.8614,-5.17857 -11.10447,-5.37558 -23.52955,5.29527 -15.67222,13.45954 1.87427,1.94749 7.43294,5.00924 9.09437,5.00924 1.53163,0 13.42055,5.22569 16.16972,7.10728 8.82033,6.03684 11.05271,22.94068 4.36978,33.08858 -2.67357,4.05977 -5.75428,6.5331 -10.0434,8.06328 -2.91195,1.03887 -14.35181,1.27025 -17.378,0.35149 z"
         id="path4368"
         inkscape:connector-curvature="0"
         sodipodi:nodetypes="cscscsssssssssssscccccsssssscscsssssssscccsssscccsssscsssscccssscscscscscccccsscscccsssscssccssssccssssssscscsssssssssssscsssssssssscsccsssssssssscsssccsssscssssssscc" />
    </g>
  </g>
</svg>
